<?xml version="1.0" encoding="utf-8"?>
<!-- Generator: Adobe Illustrator 24.2.1, SVG Export Plug-In . SVG Version: 6.00 Build 0)  -->
<svg version="1.1" id="Layer_1" xmlns="http://www.w3.org/2000/svg" xmlns:xlink="http://www.w3.org/1999/xlink" x="0px" y="0px"
	 viewBox="0 0 591.2 526.5" style="enable-background:new 0 0 591.2 526.5;" xml:space="preserve">
<style type="text/css">
	.st0{fill:#CEBBEA;}
	.st1{fill:#E2E2E2;}
	.st2{fill:url(#SVGID_1_);}
	.st3{fill:#FFFFFF;}
	.st4{font-family:'Poppins-SemiBold';}
	.st5{font-size:39.9862px;}
</style>
<path class="st0" d="M62.1,349.6c-7-14.7-65.2-138.8-9.9-204.3c19.9-23.6,53.8-74.2,137.5-91C250.3,42,325.6,39.9,359.1,43
	c69.4,6.5,140,82,138.9,142.1c-1.1,62.6-21.8,41.6-50.7,120.3c-29.8,81.1-16.7,94.6-34.5,130.1c-39.7,78.9-192,76.2-285,1
	C90.4,406.2,72.6,371.4,62.1,349.6z"/>
<path class="st1" d="M99.3,343.6c-5.6-15.2-51.9-144.3,9.4-204.3c22-21.7,60.5-68.8,145.4-77.7c61.5-6.5,136.7-1.6,169.6,4.6
	c68.5,13,131.7,94.7,125,154.5c-7,62.2-25.6,39.4-61.7,115c-37.2,78-25.5,92.6-46.6,126.3c-46.9,74.9-198.3,57.8-283.9-25.8
	C122.2,402.6,107.7,366.3,99.3,343.6z"/>
<linearGradient id="SVGID_1_" gradientUnits="userSpaceOnUse" x1="35.5772" y1="508.6564" x2="499.2341" y2="565.5862" gradientTransform="matrix(1 0 0 1 0 -264)">
	<stop  offset="0" style="stop-color:#1857E8"/>
	<stop  offset="7.355405e-02" style="stop-color:#2654E4"/>
	<stop  offset="0.6921" style="stop-color:#953AC5"/>
	<stop  offset="0.9665" style="stop-color:#C130B8"/>
</linearGradient>
<path class="st2" d="M72,371.1c-29.4-39.4-58.4-157.3-5.2-224.5c19.1-24.2,36.4-52.7,119.5-72c60.2-14,114.6-2.1,148.1,0
	c69.6,4.5,178.4,38.5,179.3,98.5c0.9,62.5-38.8,93.7-46.8,121.6c-13,45.4-6.6,99-30.3,131.1c-48.7,65.7-121.6,86.7-211.3,21.4
	C186.4,419,122.9,439.1,72,371.1z"/>
<text transform="matrix(0.9777 0 0 1 124.8062 194.5679)"><tspan x="0" y="0" class="st3 st4 st5"> I Like to Learn</tspan><tspan x="10.2" y="48" class="st3 st4 st5"> and explore </tspan><tspan x="-42.7" y="96" class="st3 st4 st5">new Technologies</tspan><tspan x="30.2" y="144" class="st3 st4 st5"> in my field</tspan></text>
</svg>
