<?xml version="1.0" encoding="utf-8"?>
<!-- Generator: Adobe Illustrator 24.2.1, SVG Export Plug-In . SVG Version: 6.00 Build 0)  -->
<svg version="1.1" id="Layer_1" xmlns="http://www.w3.org/2000/svg" xmlns:xlink="http://www.w3.org/1999/xlink" x="0px" y="0px"
	 viewBox="0 0 621.3 768.6" style="enable-background:new 0 0 621.3 768.6;" xml:space="preserve">
<style type="text/css">
	.st0{fill:#D9E021;}
	.st1{fill:#FFF810;stroke:#FFFFFF;stroke-width:28;stroke-miterlimit:10;}
	.st2{fill:#39B54A;}
	.st3{fill:#7708F9;}
	.st4{clip-path:url(#SVGID_2_);}
	.st5{fill:none;stroke:#FFFFFF;stroke-width:28;stroke-miterlimit:10;}
	.st6{fill:#FFFFFF;}
	.st7{fill:#009245;}
</style>
<g>
	<path class="st0" d="M620.5,616.7"/>
	<path class="st0" d="M620.5,766.7c-0.1,0.6-0.2,1-0.3,1.2c-40.6-0.3-81.2-0.4-121.8-0.2c-38.5,0.1-77.1,0.4-115.6,0.9
		c-54-65-45.1-161.5,19.9-215.5c39.8-33.1,93.7-43.8,143.2-28.5c0,0,39.4,11.9,62.7,37.9c9.9,11.1,11.4,19,11.8,22.2"/>
	<circle class="st1" cx="443" cy="592.2" r="131.5"/>
</g>
<path class="st2" d="M526.6,272.9c-75.8,12.7-163.1-40.1-178.7-122.1c-10.4-55,13.5-113,59.9-150.9h173.8L621,33.9
	c0.1,60,0.1,120,0.2,179.9C611.1,226.7,579,264.2,526.6,272.9z"/>
<circle class="st3" cx="243.4" cy="356.4" r="153"/>
<g>
	<g>
		<defs>
			<circle id="SVGID_1_" cx="65.5" cy="501.5" r="131.5"/>
		</defs>
		<clipPath id="SVGID_2_">
			<use xlink:href="#SVGID_1_"  style="overflow:visible;"/>
		</clipPath>
		<g class="st4">
			
				<image style="overflow:visible;enable-background:new    ;" width="1879" height="2156" xlink:href="62C326FC.jpg"  transform="matrix(0.15 0 0 0.15 -70.46 357.68)">
			</image>
		</g>
	</g>
	<circle class="st5" cx="65.5" cy="501.5" r="131.5"/>
</g>
<path class="st6" d="M620,0.2l0.5,181H620c-99.3,0-181-81.7-181-181H620z"/>
<path class="st7" d="M620.9,0l0.4,153.2h-0.4c-84,0-153.2-69.1-153.2-153.2L620.9,0z"/>
</svg>
